<svg width="24" height="25" viewBox="0 0 24 25" fill="none" xmlns="http://www.w3.org/2000/svg">
<g opacity="0.6">
<path fill-rule="evenodd" clip-rule="evenodd" d="M12.7018 19.1451C12.2566 19.1451 11.9245 18.735 12.017 18.2996L13.3474 12.0408C13.4161 11.7175 13.7016 11.4864 14.0321 11.4864H19.1534C19.54 11.4864 19.8534 11.7998 19.8534 12.1864V18.4451C19.8534 18.8317 19.54 19.1451 19.1534 19.1451H12.7018ZM10.1257 18.5907C10.057 18.9139 9.77153 19.1451 9.44102 19.1451H5.34283C4.95623 19.1451 4.64283 18.8317 4.64283 18.4451V12.1864C4.64283 11.7998 4.95623 11.4864 5.34283 11.4864H10.7714C11.2165 11.4864 11.5486 11.8964 11.4561 12.3319L10.1257 18.5907Z" fill="white"/>
<path fill-rule="evenodd" clip-rule="evenodd" d="M19.8 10.0221C20.1866 10.0221 20.5 9.70873 20.5 9.32213V6.72412C20.5 6.17184 20.0523 5.72412 19.5 5.72412H15.3269C14.9964 5.72412 14.7109 5.95529 14.6422 6.27858L14.0262 9.1766C13.9337 9.61204 14.2658 10.0221 14.7109 10.0221H19.8ZM12.7204 6.56966C12.8129 6.13421 12.4808 5.72412 12.0357 5.72412H4.82776C4.27547 5.72412 3.82776 6.17184 3.82776 6.72412V9.32213C3.82776 9.70873 4.14116 10.0221 4.52776 10.0221H11.4197C11.7502 10.0221 12.0356 9.79096 12.1044 9.46767L12.7204 6.56966Z" fill="white"/>
<path fill-rule="evenodd" clip-rule="evenodd" d="M18.6992 2.36733C18.3874 1.82732 17.5625 1.56531 16.7095 2.03175C16.5673 2.10952 16.3387 2.31879 16.0506 2.68128C15.7774 3.02493 15.5005 3.44165 15.249 3.85396C15.1247 4.05776 15.0084 4.25748 14.9038 4.44266C15.1207 4.45201 15.3565 4.45922 15.6 4.46189C16.0927 4.46729 16.6024 4.45388 17.0461 4.40557C17.5141 4.3546 17.8166 4.27344 17.9588 4.19568C18.8119 3.72923 19.0109 2.90734 18.6992 2.36733ZM13.7067 5.09724C13.6401 5.82724 13.6402 5.82725 13.6403 5.82726L13.6439 5.82761L13.6527 5.82847L13.6849 5.8315C13.7126 5.83408 13.7528 5.8377 13.8039 5.84204C13.906 5.85073 14.0521 5.86235 14.2304 5.87429C14.5863 5.89812 15.0748 5.92354 15.6013 5.92932C16.1252 5.93506 16.7016 5.92158 17.229 5.86414C17.7322 5.80935 18.2857 5.70591 18.7 5.47937C20.073 4.72863 20.8254 3.08625 19.9997 1.65619C19.1741 0.226126 17.3413 -0.00268627 15.9684 0.748057C15.5541 0.974593 15.1754 1.38089 14.8656 1.77057C14.5409 2.1791 14.2293 2.65118 13.9618 3.08963C13.693 3.53032 13.4613 3.94951 13.2971 4.25773C13.2148 4.4122 13.1491 4.53965 13.1036 4.62906C13.0808 4.67378 13.0631 4.70904 13.0509 4.73346L13.0368 4.76181L13.033 4.76958L13.0314 4.77274C13.0314 4.77283 13.0314 4.77291 13.7067 5.09724ZM13.7067 5.09724L13.0314 4.77274L12.5668 5.72055L13.6403 5.82726L13.7067 5.09724Z" fill="white"/>
<path fill-rule="evenodd" clip-rule="evenodd" d="M9.02123 2.36697C8.70945 2.90698 8.90851 3.72887 9.76155 4.19532C9.90376 4.27308 10.2063 4.35424 10.6743 4.40521C11.118 4.45352 11.6277 4.46693 12.1204 4.46153C12.3639 4.45886 12.5997 4.45165 12.8166 4.44229C12.712 4.25712 12.5957 4.0574 12.4714 3.8536C12.2199 3.44129 11.943 3.02457 11.6698 2.68092C11.3817 2.31843 11.1531 2.10916 11.0109 2.0314C10.1579 1.56495 9.333 1.82696 9.02123 2.36697ZM14.0137 5.09688C14.689 4.77255 14.689 4.77247 14.689 4.77238L14.6874 4.76922L14.6836 4.76145L14.6695 4.7331C14.6573 4.70868 14.6396 4.67342 14.6168 4.6287C14.5713 4.53929 14.5056 4.41184 14.4233 4.25738C14.2591 3.94915 14.0274 3.52997 13.7586 3.08927C13.4911 2.65082 13.1795 2.17875 12.8548 1.77021C12.545 1.38053 12.1663 0.974234 11.752 0.747697C10.3791 -0.00304558 8.54632 0.225766 7.72067 1.65583C6.89503 3.08589 7.64744 4.72827 9.02041 5.47901C9.4347 5.70555 9.98824 5.80899 10.4913 5.86378C11.0188 5.92122 11.5952 5.9347 12.1191 5.92896C12.6456 5.92318 13.134 5.89776 13.49 5.87393C13.6683 5.86199 13.8144 5.85037 13.9165 5.84168C13.9676 5.83734 14.0078 5.83372 14.0355 5.83114L14.0677 5.82811L14.0765 5.82725L14.0801 5.8269C14.0802 5.82689 14.0803 5.82688 14.0137 5.09688ZM14.0137 5.09688L14.0801 5.8269L15.1536 5.72019L14.689 4.77238L14.0137 5.09688Z" fill="white"/>
</g>
</svg>
